<svg id="Layer_1" data-name="Layer 1" xmlns="http://www.w3.org/2000/svg" viewBox="0 0 136.67 136.67"><defs><style>.cls-1{fill:#a595a4;}</style></defs><title>1Untitled-2icon1</title><path class="cls-1" d="M99.86-17.71H1.31A19.06,19.06,0,0,0-17.75,1.35V99.9A19.07,19.07,0,0,0,1.31,119H99.86A19.06,19.06,0,0,0,118.92,99.9V1.35A19.06,19.06,0,0,0,99.86-17.71Zm-26,103.33H27.29V73.43H42V36.54H27.29V25.15a51.67,51.67,0,0,0,6.47-.4,17.36,17.36,0,0,0,5.15-1.38,8.68,8.68,0,0,0,3.66-3.05A9.72,9.72,0,0,0,44,15.63H59.49v57.8H73.88Z" transform="translate(17.75 17.71)"/></svg>