<svg id="Layer_1" data-name="Layer 1" xmlns="http://www.w3.org/2000/svg" viewBox="0 0 136.67 136.66"><defs><style>.cls-1{fill:#a595a4;}</style></defs><title>1Untitled-2icon</title><path class="cls-1" d="M99.47-17.62H.92A19.06,19.06,0,0,0-18.14,1.44V100A19.06,19.06,0,0,0,.92,119H99.47A19.06,19.06,0,0,0,118.53,100V1.44A19.06,19.06,0,0,0,99.47-17.62ZM77.59,86.29H22.8V74.76q6.27-4.55,12.58-9.66t10.1-8.81a48.65,48.65,0,0,0,8.07-9.56,15.91,15.91,0,0,0,2.39-8.07,9.18,9.18,0,0,0-3.07-7.38Q49.8,28.69,44,28.68A25.78,25.78,0,0,0,35,30.46,41.71,41.71,0,0,0,26.12,35h-1.5V19.49a56.69,56.69,0,0,1,9.82-2.9,59.38,59.38,0,0,1,13-1.46q13.13,0,20,5.51t6.89,15.59a25.45,25.45,0,0,1-3.31,12.56A51.35,51.35,0,0,1,61,61.07Q56.69,65,52.37,68.31t-6.14,4.62H77.59Z" transform="translate(18.14 17.62)"/></svg>