<svg id="Layer_1" data-name="Layer 1" xmlns="http://www.w3.org/2000/svg" viewBox="0 0 136.67 136.66"><defs><style>.cls-1{fill:#a595a4;}</style></defs><title>3Untitled-2icon1</title><path class="cls-1" d="M100.14-16.86H1.59A19.06,19.06,0,0,0-17.47,2.2v98.54A19.06,19.06,0,0,0,1.59,119.8h98.55a19.06,19.06,0,0,0,19.06-19.06V2.2A19.06,19.06,0,0,0,100.14-16.86ZM76.46,74.42a19,19,0,0,1-6,7.31,28.92,28.92,0,0,1-9.25,4.52,46,46,0,0,1-12.92,1.57,70.28,70.28,0,0,1-14.88-1.36,56,56,0,0,1-10.1-3V68.09h1.83a45,45,0,0,0,9.63,4.22A34.27,34.27,0,0,0,45,74.09a42.58,42.58,0,0,0,5.91-.45,12.58,12.58,0,0,0,5.39-1.94,9.32,9.32,0,0,0,2.76-2.84,9.16,9.16,0,0,0,1-4.8,7.09,7.09,0,0,0-1.4-4.72A7.72,7.72,0,0,0,55,57a19.16,19.16,0,0,0-5.54-.82q-3.23-.07-6-.07H39.64V43.62h4q3.66,0,6.47-.24a15.4,15.4,0,0,0,4.79-1.07A7.18,7.18,0,0,0,58,39.94a7.56,7.56,0,0,0,1-4.34,5.13,5.13,0,0,0-1.08-3.4,7.54,7.54,0,0,0-2.72-2A13.86,13.86,0,0,0,50.89,29a38.18,38.18,0,0,0-4.27-.28,34.13,34.13,0,0,0-9.56,1.52,44,44,0,0,0-10,4.39H25.34V19.52a67.13,67.13,0,0,1,10.46-3,62.69,62.69,0,0,1,13.4-1.43,51.54,51.54,0,0,1,11.58,1.15A28.59,28.59,0,0,1,69,19.34a15.5,15.5,0,0,1,5.72,5.58,15.2,15.2,0,0,1,1.88,7.68A16.3,16.3,0,0,1,73,43a16,16,0,0,1-9.52,5.83v.66a24.18,24.18,0,0,1,5.07,1.31,16.09,16.09,0,0,1,4.87,2.86,15.28,15.28,0,0,1,3.66,4.59,15.35,15.35,0,0,1,1.36,7A21.87,21.87,0,0,1,76.46,74.42Z" transform="translate(17.47 16.86)"/></svg>