<svg id="Layer_1" data-name="Layer 1" xmlns="http://www.w3.org/2000/svg" viewBox="0 0 136.67 136.66"><defs><style>.cls-1{fill:#a595a4;}</style></defs><title>z5Untitled-2icon1</title><path class="cls-1" d="M100-16.95H1.44A19.06,19.06,0,0,0-17.62,2.11v98.54A19.06,19.06,0,0,0,1.44,119.71H100a19.06,19.06,0,0,0,19.06-19.06V2.11A19.06,19.06,0,0,0,100-16.95ZM75.82,72a22,22,0,0,1-5.93,8A28.53,28.53,0,0,1,60,85.3,43.72,43.72,0,0,1,47.2,87,68,68,0,0,1,33,85.67a53.34,53.34,0,0,1-9.45-2.88V67.37h2a49.61,49.61,0,0,0,9.19,4.21,29.94,29.94,0,0,0,9.8,1.69,32.6,32.6,0,0,0,6.39-.68,11.41,11.41,0,0,0,5.47-2.46,11.72,11.72,0,0,0,2.41-2.95,10,10,0,0,0,.82-4.64,7.78,7.78,0,0,0-1.1-4.2,8.82,8.82,0,0,0-2.84-2.83,15.76,15.76,0,0,0-6.09-2A47.36,47.36,0,0,0,43.12,53,44.19,44.19,0,0,0,35,53.7c-2.57.49-4.83,1-6.77,1.43H26.2V15.76H75.84V29.12H43.12V40.51c1-.07,2.2-.12,3.68-.17s2.79-.07,3.91-.07A43.81,43.81,0,0,1,61,41.37a28.23,28.23,0,0,1,7.81,3.07,18.5,18.5,0,0,1,6.65,6.82,21.46,21.46,0,0,1,2.39,10.67A25.1,25.1,0,0,1,75.82,72Z" transform="translate(17.62 16.95)"/></svg>