<svg id="Layer_1" data-name="Layer 1" xmlns="http://www.w3.org/2000/svg" viewBox="0 0 136.66 136.67"><defs><style>.cls-1{fill:#a595a4;}</style></defs><title>4Untitled-2icon1</title><path class="cls-1" d="M99.81-17.28H1.27A19.06,19.06,0,0,0-17.79,1.78v98.55A19.06,19.06,0,0,0,1.27,119.39H99.81a19.06,19.06,0,0,0,19.06-19.06V1.78A19.06,19.06,0,0,0,99.81-17.28ZM77.12,72.24a22.16,22.16,0,0,1-5.53,8,26.53,26.53,0,0,1-8.79,5.3,34,34,0,0,1-11.7,1.82,36.37,36.37,0,0,1-11.46-1.71,23.38,23.38,0,0,1-8.88-5.22A25.84,25.84,0,0,1,24.24,70,45.91,45.91,0,0,1,22,54.76,57.79,57.79,0,0,1,24.1,38.44,33.41,33.41,0,0,1,31,25.83a30.39,30.39,0,0,1,11.93-8.15,47.28,47.28,0,0,1,17.46-2.91,66.69,66.69,0,0,1,7.5.47c2.72.31,4.49.55,5.3.7V29.68H71.4a25.16,25.16,0,0,0-4.29-1.38,27.62,27.62,0,0,0-6.87-.78q-9,0-14,4.41t-6,12.28a38.34,38.34,0,0,1,7.62-3.49,27.18,27.18,0,0,1,8.65-1.34,29,29,0,0,1,7.57.94,20.83,20.83,0,0,1,6.49,3,19.57,19.57,0,0,1,6.23,7.31,25.16,25.16,0,0,1,2.35,11.49A26.15,26.15,0,0,1,77.12,72.24Z" transform="translate(17.79 17.28)"/><path class="cls-1" d="M61,63a16.39,16.39,0,0,1-.87,5.93,12.27,12.27,0,0,1-2.32,3.77,8.29,8.29,0,0,1-3.19,2.11,9.82,9.82,0,0,1-3.42.71,10.78,10.78,0,0,1-3.85-.68,8.09,8.09,0,0,1-3.09-2.14A14,14,0,0,1,41.14,67,32.73,32.73,0,0,1,40,57.48c0-1.1,0-2,0-2.72s.05-1.24.05-1.55A27.53,27.53,0,0,1,44.21,52a21.34,21.34,0,0,1,4.31-.47,22.42,22.42,0,0,1,4.74.49,9.63,9.63,0,0,1,4,1.81A8.76,8.76,0,0,1,60,57.36,13.6,13.6,0,0,1,61,63Z" transform="translate(17.79 17.28)"/></svg>