<svg id="Layer_1" data-name="Layer 1" xmlns="http://www.w3.org/2000/svg" viewBox="0 0 136.67 136.67"><defs><style>.cls-1{fill:#a595a4;}</style></defs><title>z9Untitled-2icon1</title><path class="cls-1" d="M99.75-16.68H1.2A19.07,19.07,0,0,0-17.86,2.38v98.55A19.06,19.06,0,0,0,1.2,120H99.75a19.06,19.06,0,0,0,19.06-19.06V2.38A19.06,19.06,0,0,0,99.75-16.68Zm-23,80.77A33,33,0,0,1,69.93,76.8,30.82,30.82,0,0,1,57.6,85.17,48.22,48.22,0,0,1,40.45,88a72.45,72.45,0,0,1-7.5-.42,44.67,44.67,0,0,1-5.3-.75V73.05h1.87a28.82,28.82,0,0,0,4,1.41,26.68,26.68,0,0,0,7.1.75,28.44,28.44,0,0,0,7.18-.91,16.31,16.31,0,0,0,6-2.89,17,17,0,0,0,4.55-5.27,21.35,21.35,0,0,0,2.39-7.62,47.44,47.44,0,0,1-7.57,3.59,26.19,26.19,0,0,1-8.7,1.24,29,29,0,0,1-7.52-1,21.38,21.38,0,0,1-6.54-3,20,20,0,0,1-6.21-7.3,24.85,24.85,0,0,1-2.32-11.42q0-11.22,7.81-18.28T50.2,15.35a35.89,35.89,0,0,1,11.55,1.71,23.14,23.14,0,0,1,8.7,5.23,25.25,25.25,0,0,1,6.42,10.28A46.71,46.71,0,0,1,79,47.76,57,57,0,0,1,76.77,64.09Z" transform="translate(17.86 16.68)"/><path class="cls-1" d="M61.07,45.15c0,1.29,0,2.25-.07,2.89s-.07,1.14-.07,1.48a23.47,23.47,0,0,1-3.84,1.1,21.5,21.5,0,0,1-9.45,0,10,10,0,0,1-3.87-1.79,8.76,8.76,0,0,1-2.71-3.54,13.63,13.63,0,0,1-1-5.52A16.63,16.63,0,0,1,41,34,11.14,11.14,0,0,1,43.35,30a9.38,9.38,0,0,1,3.21-2.19,9.82,9.82,0,0,1,3.5-.63,10.73,10.73,0,0,1,3.75.66A8,8,0,0,1,57,30a14,14,0,0,1,3,5.7A33.79,33.79,0,0,1,61.07,45.15Z" transform="translate(17.86 16.68)"/></svg>